<svg xmlns="http://www.w3.org/2000/svg" viewBox="0 0 200 200" width="200" height="200">
    <rect width="200" height="200" fill="#ffffff" rx="16"/>
    <rect x="20" y="20" width="50" height="50" fill="#0f172a" rx="6"/>
    <rect x="30" y="30" width="30" height="30" fill="#ffffff"/>
    <rect x="38" y="38" width="14" height="14" fill="#0f172a"/>
    <rect x="130" y="20" width="50" height="50" fill="#0f172a" rx="6"/>
    <rect x="140" y="30" width="30" height="30" fill="#ffffff"/>
    <rect x="148" y="38" width="14" height="14" fill="#0f172a"/>
    <rect x="20" y="130" width="50" height="50" fill="#0f172a" rx="6"/>
    <rect x="30" y="140" width="30" height="30" fill="#ffffff"/>
    <rect x="38" y="148" width="14" height="14" fill="#0f172a"/>
    <!-- QR pattern elements -->
    <rect x="80" y="25" width="35" height="10" fill="#0f172a"/>
    <rect x="85" y="45" width="25" height="12" fill="#0f172a"/>
    <rect x="25" y="85" width="150" height="12" fill="#0f172a"/>
    <rect x="80" y="110" width="40" height="15" fill="#0f172a"/>
    <rect x="130" y="130" width="50" height="50" fill="#0284c7" rx="6"/>
    <text x="155" y="160" font-family="sans-serif" font-size="12" font-weight="bold" fill="#ffffff" text-anchor="middle">LOCATION</text>
  </svg>